# xmcd CD database file
# Copyright (C) 1993-1998 Ti Kan
# 
# Track frame offsets:
#     150
#     14013
#     22300
#     38488
#     47950
#     60600
#     73150
#     87838
#     99988
#     113425
#     127588
#     138563
#     153513
#     168763
#     179988
#     192875
#     202425
#     216863
#     228200
#     237200
# 
# Disc length: 3344 seconds
# 
# Revision: 1
# Processed by: cddbd v1.4b41PL1 Copyright (c) Steve Scherf et al.
# Submitted via: DiscPlay 4.0.4
# 
DISCID=1c0d0e14
DTITLE=The Norman Luboff Choir - Songs Of The Old West
DYEAR=1900
DGENRE=
TTITLE0=Bury Me Not On The Lone Praire
TTITLE1=The Chisholm Trail
TTITLE2=Red River Valley
TTITLE3=Whoopee To Yi Yo
TTITLE4=Doney Gal
TTITLE5=Tumbling Tumbleweeds
TTITLE6=Colorado Trail
TTITLE7=I Ride An Old Paint
TTITLE8=Night Herding Song
TTITLE9=Cool Water
TTITLE10=Streets of Laredo
TTITLE11=Home on the Range
TTITLE12=The Last Round Up
TTITLE13=The Railroad Corral
TTITLE14=A Prisoner For Life
TTITLE15=Good Bye Old Paint
TTITLE16=Riders In The Sky
TTITLE17=Ten Thousand Cattle
TTITLE18=Hooray For The Cowboys
TTITLE19=The Cowboy's Prayer
EXTD=
EXTT0=
EXTT1=
EXTT2=
EXTT3=
EXTT4=
EXTT5=
EXTT6=
EXTT7=
EXTT8=
EXTT9=
EXTT10=
EXTT11=
EXTT12=
EXTT13=
EXTT14=
EXTT15=
EXTT16=
EXTT17=
EXTT18=
EXTT19=
PLAYORDER=
